<svg xmlns="http://www.w3.org/2000/svg" xmlns:xlink="http://www.w3.org/1999/xlink" viewBox="0 0 835.57 574.48"><defs><style>.cls-1{fill:#020c1f;}.cls-2{fill:url(#New_Gradient_Swatch_1);}.cls-3{fill:#40288c;}.cls-4{fill:#050505;}.cls-5{fill:#3b3b3b;}.cls-6,.cls-7,.cls-8,.cls-9{font-size:14.72px;}.cls-6{fill:#fff;font-family:OCRAExtended, OCR A Extended;}.cls-7{fill:#b6b6b7;}.cls-7,.cls-8,.cls-9{font-family:Asap-Bold, Asap;}.cls-10,.cls-7,.cls-8{font-weight:700;}.cls-8{fill:#cecedd;}.cls-9{fill:#f7f7f7;opacity:0.65;}.cls-11,.cls-12{font-family:Asap-Regular, Asap;}.cls-12{fill:gray;}.cls-13{fill:#e94976;}</style><radialGradient id="New_Gradient_Swatch_1" cx="417.63" cy="14.84" r="291.26" gradientTransform="translate(143.31 -301.45) rotate(45) scale(1 2)" gradientUnits="userSpaceOnUse"><stop offset="0.01" stop-color="#015249"/><stop offset="0.27" stop-color="#03b3a1" stop-opacity="0.3"/><stop offset="0.38" stop-color="#198594" stop-opacity="0.48"/><stop offset="0.61" stop-color="#510e71" stop-opacity="0.95"/><stop offset="0.63" stop-color="#58006d"/><stop offset="0.64" stop-color="#55006e"/><stop offset="0.66" stop-color="#4a0070"/><stop offset="0.7" stop-color="#430072"/><stop offset="0.8" stop-color="#410072"/><stop offset="0.92" stop-color="#1c0664"/><stop offset="1" stop-color="#000a59"/></radialGradient></defs><title>Asset 32</title><g id="Layer_2" data-name="Layer 2"><g id="Chat"><rect id="_Rectangle_" data-name="&lt;Rectangle&gt;" class="cls-1" width="835.57" height="574.48"/><rect id="_Rectangle_2" data-name="&lt;Rectangle&gt;" x="8.49" y="7.49" width="823.54" height="20.87"/><rect id="_Rectangle_3" data-name="&lt;Rectangle&gt;" class="cls-2" x="5.86" y="4.4" width="823.54" height="20.87"/><rect id="_Rectangle_4" data-name="&lt;Rectangle&gt;" x="8.49" y="34.17" width="823.54" height="533.5"/><rect id="_Rectangle_5" data-name="&lt;Rectangle&gt;" class="cls-3" x="5.86" y="31.07" width="823.54" height="533.79"/><rect id="_Rectangle_6" data-name="&lt;Rectangle&gt;" class="cls-4" x="769.44" y="8.72" width="16.09" height="14.32"/><rect id="_Rectangle_7" data-name="&lt;Rectangle&gt;" class="cls-5" x="768.22" y="7.49" width="16.09" height="14.32"/><rect id="_Rectangle_8" data-name="&lt;Rectangle&gt;" class="cls-1" x="15.63" y="38.82" width="802.49" height="25.77"/><rect id="_Rectangle_9" data-name="&lt;Rectangle&gt;" class="cls-1" x="15.63" y="420.43" width="577.94" height="136.2"/><rect id="_Rectangle_10" data-name="&lt;Rectangle&gt;" class="cls-1" x="15.63" y="73.17" width="577.75" height="338.67"/><rect id="_Rectangle_11" data-name="&lt;Rectangle&gt;" class="cls-1" x="606.08" y="73.17" width="212.04" height="483.26"/><text class="cls-6" transform="translate(21.66 89.5)">&gt; // *** LOADING ***<tspan x="0" y="17.67">&gt; // *** JOIN: @RIVEN *.*.* ***</tspan><tspan x="0" y="35.34">&gt; // *** LAUNCHING/SecUREd LINe.exe ***</tspan></text><text class="cls-6" transform="translate(21.66 57.59)"><tspan xml:space="preserve">&gt;CHAT ROOM / @RIVEN      *.*.* </tspan></text><text class="cls-7" transform="translate(771.9 19.59)">X</text><text class="cls-8" transform="translate(787.85 20)">Close</text><text class="cls-9" transform="translate(16.04 19.18)"><tspan class="cls-10">pickysoft</tspan><tspan class="cls-11" x="58.51" y="0"> </tspan><tspan class="cls-12" x="62.05" y="0">OS</tspan></text><g id="ic-heart"><path class="cls-13" d="M209.87,43.86c4.31,0,6.2,4,4.91,7.84a11.53,11.53,0,0,1-3.69,4.8,28.62,28.62,0,0,1-2.49,1.85c-.52.33-.92.58-1.17.72l-.84.47-.84-.47c-.24-.14-.64-.39-1.15-.72a27.31,27.31,0,0,1-2.5-1.85,11.59,11.59,0,0,1-3.69-4.8c-1.29-3.79.63-7.84,4.92-7.84a4.14,4.14,0,0,1,3.27,1.32A4.17,4.17,0,0,1,209.87,43.86Zm3.28,7.29c.83-2.41,0-5.57-3.28-5.57S207.45,49,206.59,49s0-3.42-3.26-3.42-4.11,3.16-3.3,5.57c1.16,3.39,6.56,6.42,6.56,6.42S212,54.54,213.15,51.15Z"/><path class="cls-13" d="M209.87,45.58c3.28,0,4.11,3.16,3.28,5.57-1.15,3.39-6.56,6.42-6.56,6.42s-5.4-3-6.56-6.42c-.81-2.41,0-5.57,3.3-5.57S205.74,49,206.59,49,206.59,45.58,209.87,45.58ZM204,47.93a.64.64,0,0,0-.64-.64,2.17,2.17,0,0,0-.93.23,1.79,1.79,0,0,0-1,1.7.64.64,0,0,0,1.28,0c0-.31.09-.46.28-.55a.94.94,0,0,1,.36-.1A.64.64,0,0,0,204,47.93Z"/><path class="cls-13" d="M203.37,47.29a.64.64,0,0,1,.64.64.64.64,0,0,1-.64.64.94.94,0,0,0-.36.1c-.19.09-.28.24-.28.55a.64.64,0,0,1-1.28,0,1.79,1.79,0,0,1,1-1.7A2.17,2.17,0,0,1,203.37,47.29Z"/></g><g id="ic-heart-2" data-name="ic-heart"><path class="cls-13" d="M224.54,40.39c2.7-1.11,4.94.93,5.11,3.65a7.77,7.77,0,0,1-1.07,4,17,17,0,0,1-1.09,1.81c-.23.35-.42.61-.54.76l-.41.51L225.9,51c-.19,0-.51-.07-.92-.15a16.44,16.44,0,0,1-2-.51,7.81,7.81,0,0,1-3.57-2.06c-1.8-2-1.64-5.08,1-6.2a2.87,2.87,0,0,1,2.4,0A2.83,2.83,0,0,1,224.54,40.39Zm4,3.73c-.11-1.73-1.45-3.5-3.51-2.65s-.63,2.78-1.17,3-.89-2.15-2.94-1.3-1.76,3-.62,4.35c1.6,1.83,5.79,2.33,5.79,2.33S228.65,46.54,228.49,44.12Z"/><path class="cls-13" d="M225,41.47c2.06-.85,3.4.92,3.51,2.65.16,2.42-2.45,5.73-2.45,5.73s-4.19-.5-5.79-2.33c-1.14-1.3-1.43-3.5.62-4.35s2.41,1.53,2.94,1.3S222.92,42.32,225,41.47Zm-3.07,3a.43.43,0,0,0-.57-.23,1.39,1.39,0,0,0-.53.38,1.24,1.24,0,0,0-.18,1.33.44.44,0,0,0,.81-.34.35.35,0,0,1,0-.41.76.76,0,0,1,.2-.16A.44.44,0,0,0,221.91,44.47Z"/><path class="cls-13" d="M221.34,44.24a.43.43,0,0,1,.57.23.44.44,0,0,1-.24.57.76.76,0,0,0-.2.16.35.35,0,0,0,0,.41.44.44,0,0,1-.81.34,1.24,1.24,0,0,1,.18-1.33A1.39,1.39,0,0,1,221.34,44.24Z"/></g><g id="ic-heart-3" data-name="ic-heart"><path class="cls-13" d="M232.16,51.49c3.13-.25,4.74,2.57,4,5.41a8.41,8.41,0,0,1-2.4,3.7,19.7,19.7,0,0,1-1.7,1.49c-.35.27-.64.47-.8.59l-.59.39-.63-.3c-.18-.08-.49-.23-.88-.45a17.54,17.54,0,0,1-1.92-1.2,8.31,8.31,0,0,1-3-3.26c-1.17-2.69,0-5.73,3.11-6a3,3,0,0,1,2.45.76A3.06,3.06,0,0,1,232.16,51.49Zm2.81,5.1c.46-1.8-.32-4-2.71-3.85s-1.56,2.63-2.18,2.68-.2-2.49-2.57-2.3-2.8,2.54-2.07,4.24c1,2.39,5.14,4.28,5.14,4.28S234.33,59.12,235,56.59Z"/><path class="cls-13" d="M232.26,52.74c2.39-.19,3.17,2,2.71,3.85-.64,2.53-4.39,5-4.39,5s-4.1-1.89-5.14-4.28c-.73-1.7-.3-4,2.07-4.24s2,2.35,2.57,2.3S229.88,52.93,232.26,52.74Zm-4.12,2a.47.47,0,0,0-.51-.43,1.55,1.55,0,0,0-.66.22,1.3,1.3,0,0,0-.62,1.3.47.47,0,1,0,.93-.08.38.38,0,0,1,.18-.41.54.54,0,0,1,.25-.09A.47.47,0,0,0,228.14,54.79Z"/><path class="cls-13" d="M227.63,54.36a.47.47,0,0,1,.51.43.47.47,0,0,1-.43.51.54.54,0,0,0-.25.09.38.38,0,0,0-.18.41.47.47,0,1,1-.93.08,1.3,1.3,0,0,1,.62-1.3A1.55,1.55,0,0,1,227.63,54.36Z"/></g></g></g></svg>