<svg xmlns="http://www.w3.org/2000/svg" viewBox="0 0 24.54 22.09"><defs><style>.cls-1{fill:#7f6bf2;}</style></defs><title>Asset 60</title><g id="Layer_2" data-name="Layer 2"><g id="Chat"><path class="cls-1" d="M23.31,4.91H16a1.23,1.23,0,0,0-1.23,1.23V9.82H12.27V1.23A1.23,1.23,0,0,0,11,0H1.23A1.23,1.23,0,0,0,0,1.23V20.86a1.23,1.23,0,0,0,1.23,1.23H23.31a1.23,1.23,0,0,0,1.23-1.23V6.14A1.23,1.23,0,0,0,23.31,4.91ZM7.36,3.68H9.82V6.14H7.36ZM4.91,16H2.45V13.5H4.91Zm0-4.91H2.45V8.59H4.91Zm0-4.9H2.45V3.68H4.91ZM9.82,16H7.36V13.5H9.82Zm0-4.91H7.36V8.59H9.82V11Zm11,4.91H18.41V13.5h2.45Zm0-4.91H18.41V8.59h2.45Z"/></g></g></svg>