<svg xmlns="http://www.w3.org/2000/svg" xmlns:xlink="http://www.w3.org/1999/xlink" viewBox="0 0 835.57 574.48"><defs><style>.cls-1{fill:#020c1f;}.cls-2{fill:url(#New_Gradient_Swatch_1);}.cls-3{fill:#40288c;}.cls-4{fill:#050505;}.cls-5{fill:#3b3b3b;}.cls-6,.cls-7,.cls-8,.cls-9{font-size:14.72px;}.cls-6{fill:#fff;font-family:OCRAExtended, OCR A Extended;}.cls-7{fill:#b6b6b7;}.cls-7,.cls-8,.cls-9{font-family:Asap-Bold, Asap;}.cls-10,.cls-7,.cls-8{font-weight:700;}.cls-8{fill:#cecedd;}.cls-9{fill:#f7f7f7;opacity:0.65;}.cls-11,.cls-12{font-family:Asap-Regular, Asap;}.cls-12{fill:gray;}.cls-13,.cls-14{opacity:0.6;}.cls-13{fill:url(#linear-gradient);}.cls-14{fill:#000a59;}.cls-15{fill:#f89a78;}.cls-16{fill:#dfe1ef;}.cls-17{fill:#e94976;}.cls-18{fill:#f36e74;}.cls-19{fill:#59c9c9;}.cls-20{fill:#e8e4cf;}.cls-21{fill:#7f6bf2;}</style><radialGradient id="New_Gradient_Swatch_1" cx="417.63" cy="14.84" r="291.26" gradientTransform="translate(143.31 -301.45) rotate(45) scale(1 2)" gradientUnits="userSpaceOnUse"><stop offset="0.01" stop-color="#015249"/><stop offset="0.27" stop-color="#03b3a1" stop-opacity="0.3"/><stop offset="0.38" stop-color="#198594" stop-opacity="0.48"/><stop offset="0.61" stop-color="#510e71" stop-opacity="0.95"/><stop offset="0.63" stop-color="#58006d"/><stop offset="0.64" stop-color="#55006e"/><stop offset="0.66" stop-color="#4a0070"/><stop offset="0.7" stop-color="#430072"/><stop offset="0.8" stop-color="#410072"/><stop offset="0.92" stop-color="#1c0664"/><stop offset="1" stop-color="#000a59"/></radialGradient><linearGradient id="linear-gradient" x1="416.92" y1="171.22" x2="416.92" y2="90.76" gradientUnits="userSpaceOnUse"><stop offset="0" stop-color="#ff7bac"/><stop offset="0.22" stop-color="#ff7bac" stop-opacity="0.76"/><stop offset="0.6" stop-color="#ff7bac" stop-opacity="0.36"/><stop offset="0.87" stop-color="#ff7bac" stop-opacity="0.1"/><stop offset="1" stop-color="#ff7bac" stop-opacity="0"/></linearGradient></defs><title>Asset 22</title><g id="Layer_2" data-name="Layer 2"><g id="Sneak_Diary" data-name="Sneak Diary"><rect id="_Rectangle_" data-name="&lt;Rectangle&gt;" class="cls-1" width="835.57" height="574.48"/><rect id="_Rectangle_2" data-name="&lt;Rectangle&gt;" x="8.49" y="7.49" width="823.54" height="20.87"/><rect id="_Rectangle_3" data-name="&lt;Rectangle&gt;" class="cls-2" x="5.86" y="4.4" width="823.54" height="20.87"/><rect id="_Rectangle_4" data-name="&lt;Rectangle&gt;" x="8.49" y="34.17" width="823.54" height="533.5"/><rect id="_Rectangle_5" data-name="&lt;Rectangle&gt;" class="cls-3" x="5.86" y="31.07" width="823.54" height="533.79"/><rect id="_Rectangle_6" data-name="&lt;Rectangle&gt;" class="cls-4" x="769.44" y="8.72" width="16.09" height="14.32"/><rect id="_Rectangle_7" data-name="&lt;Rectangle&gt;" class="cls-5" x="768.22" y="7.49" width="16.09" height="14.32"/><rect id="_Rectangle_8" data-name="&lt;Rectangle&gt;" class="cls-1" x="15.63" y="38.82" width="802.49" height="25.77"/><rect id="_Rectangle_9" data-name="&lt;Rectangle&gt;" class="cls-1" x="15.63" y="73.17" width="802.49" height="484.19"/><text class="cls-6" transform="translate(21.66 57.59)">&gt;SNEAK DIARY!/ ScrapHeapHeights</text><text class="cls-7" transform="translate(771.9 19.59)">X</text><text class="cls-8" transform="translate(787.85 20)">Close</text><text class="cls-9" transform="translate(16.04 19.18)"><tspan class="cls-10">pickysoft</tspan><tspan class="cls-11" x="58.51" y="0"> </tspan><tspan class="cls-12" x="62.05" y="0">OS</tspan></text><rect id="_Rectangle_10" data-name="&lt;Rectangle&gt;" class="cls-13" x="16.04" y="90.76" width="801.77" height="80.47"/><rect id="_Rectangle_11" data-name="&lt;Rectangle&gt;" class="cls-14" x="15.63" y="90.36" width="802.18" height="80.86"/><g id="Layer_16" data-name="Layer 16"><circle class="cls-15" cx="64.78" cy="125.62" r="1.54"/><circle class="cls-16" cx="129.7" cy="133.74" r="1.54"/><circle class="cls-17" cx="97.75" cy="130.71" r="3.07"/><circle class="cls-16" cx="167.26" cy="128.35" r="1.54"/><circle class="cls-16" cx="105.4" cy="115" r="1.54"/><circle class="cls-16" cx="73.39" cy="99.95" r="1.54"/><circle class="cls-18" cx="29.83" cy="101.08" r="3.07"/><circle class="cls-16" cx="158.34" cy="98.26" r="3.07"/><circle class="cls-16" cx="125.97" cy="97.27" r="1.54"/><circle class="cls-16" cx="509.99" cy="133.68" r="1.54"/><circle class="cls-16" cx="471.84" cy="121.07" r="1.54"/><circle class="cls-16" cx="453.37" cy="136.31" r="3.07"/><circle class="cls-16" cx="795.21" cy="130.93" r="1.54"/><circle class="cls-16" cx="774.3" cy="143.85" r="3.07"/><circle class="cls-16" cx="29.49" cy="121.75" r="1.54"/><circle class="cls-16" cx="764.78" cy="114.64" r="1.54"/><circle class="cls-16" cx="53.57" cy="107.63" r="1.54"/><circle class="cls-16" cx="791.48" cy="103.04" r="1.54"/><circle class="cls-16" cx="569.99" cy="135.67" r="1.54"/><circle class="cls-19" cx="549.43" cy="103.43" r="3.07"/><circle class="cls-16" cx="243.06" cy="142.15" r="1.54"/><circle class="cls-16" cx="752.02" cy="134.17" r="1.54"/><circle class="cls-16" cx="711.99" cy="98.8" r="1.54"/><circle class="cls-19" cx="716.94" cy="133.74" r="3.07"/><circle class="cls-16" cx="645.71" cy="142.88" r="1.54"/><circle class="cls-16" cx="644.94" cy="125.05" r="3.07"/><circle class="cls-16" cx="607.56" cy="113.09" r="1.54"/><circle class="cls-16" cx="610.63" cy="142.44" r="3.07"/><circle class="cls-16" cx="694.81" cy="117.93" r="1.54"/><circle class="cls-16" cx="667.56" cy="102.81" r="1.54"/><circle class="cls-16" cx="555.51" cy="119.38" r="1.54"/><circle class="cls-16" cx="517.36" cy="119.05" r="1.54"/><circle class="cls-20" cx="527.79" cy="96.86" r="3.07"/><circle class="cls-16" cx="631.63" cy="116.15" r="1.54"/><circle class="cls-16" cx="566.26" cy="107.78" r="1.54"/><circle class="cls-16" cx="419.79" cy="122.45" r="1.54"/><circle class="cls-16" cx="388.34" cy="116.53" r="1.54"/><circle class="cls-16" cx="495.91" cy="106.95" r="1.54"/><circle class="cls-16" cx="441.64" cy="111.84" r="1.54"/><circle class="cls-16" cx="444.71" cy="111.74" r="3.07"/><circle class="cls-16" cx="313.47" cy="131.16" r="1.54"/><circle class="cls-20" cx="320.07" cy="103.52" r="3.07"/><circle class="cls-16" cx="275.32" cy="130.82" r="1.54"/><circle class="cls-16" cx="278.39" cy="113.55" r="3.07"/><circle class="cls-16" cx="362.57" cy="123.39" r="1.54"/><circle class="cls-16" cx="397.09" cy="98.46" r="3.07"/><circle class="cls-16" cx="335.32" cy="120.54" r="1.54"/><circle class="cls-20" cx="345.76" cy="98.36" r="3.07"/><circle class="cls-16" cx="223.28" cy="132.2" r="1.54"/><circle class="cls-16" cx="206.4" cy="107.33" r="3.07"/><circle class="cls-16" cx="185.13" cy="119.6" r="1.54"/><circle class="cls-15" cx="299.39" cy="116.7" r="1.54"/><circle class="cls-16" cx="266.4" cy="97.05" r="3.07"/><circle class="cls-16" cx="245.13" cy="109.32" r="1.54"/></g><path class="cls-21" d="M311.2,41.46c-6.77,0-10.43,4.84-10.43,9.39a7.14,7.14,0,0,0,3.13,5.75v4.68H307V58.15h2.09v3.13h4.17V58.15h2.09v3.13h3.13V56.6a7.13,7.13,0,0,0,3.12-5.75C321.63,46.3,318,41.46,311.2,41.46ZM307,52.94A2.36,2.36,0,0,1,305,50.33a2.14,2.14,0,1,1,4.17,0A2.37,2.37,0,0,1,307,52.94Zm8.35,0a2.37,2.37,0,0,1-2.09-2.61,2.14,2.14,0,1,1,4.17,0A2.36,2.36,0,0,1,315.38,52.94Z"/></g></g></svg>