<svg xmlns="http://www.w3.org/2000/svg" viewBox="0 0 31.53 28.81"><defs><style>.cls-1{fill:#e94976;}</style></defs><title>Asset 30</title><g id="Layer_2" data-name="Layer 2"><g id="Chat"><g id="Layer_12" data-name="Layer 12"><g id="ic-heart"><path class="cls-1" d="M22.05.24c7.9,0,11.38,7.42,9,14.41-1.05,3.1-3.45,6-6.78,8.81a46.71,46.71,0,0,1-4.58,3.4c-1,.62-1.69,1.07-2.13,1.32L16,29.05l-1.54-.87c-.46-.25-1.2-.7-2.13-1.32a47,47,0,0,1-4.6-3.4C4.43,20.64,2,17.75,1,14.65-1.39,7.67,2.12.24,10,.24a7.63,7.63,0,0,1,6,2.43A7.67,7.67,0,0,1,22.05.24Zm6,13.4c1.49-4.42,0-10.25-6-10.25s-4.46,6.3-6,6.3,0-6.3-6-6.3S2.45,9.22,4,13.64C6.09,19.86,16,25.43,16,25.43S26,19.87,28.08,13.64Z" transform="translate(-0.25 -0.24)"/><path class="cls-1" d="M22.05,3.39c6,0,7.52,5.83,6,10.25C26,19.87,16,25.43,16,25.43S6.09,19.86,4,13.64C2.45,9.22,4,3.39,10,3.39s4.42,6.3,6,6.3S16,3.39,22.05,3.39ZM11.26,7.72a1.18,1.18,0,0,0-1.18-1.18A3.86,3.86,0,0,0,8.38,7a3.28,3.28,0,0,0-1.84,3.11,1.18,1.18,0,0,0,1.18,1.18A1.17,1.17,0,0,0,8.9,10.08a1,1,0,0,1,.54-1,1.6,1.6,0,0,1,.64-.18A1.17,1.17,0,0,0,11.26,7.72Z" transform="translate(-0.25 -0.24)"/><path class="cls-1" d="M10.08,6.54a1.18,1.18,0,0,1,1.18,1.18A1.17,1.17,0,0,1,10.08,8.9a1.6,1.6,0,0,0-.64.18,1,1,0,0,0-.54,1,1.17,1.17,0,0,1-1.18,1.18,1.18,1.18,0,0,1-1.18-1.18A3.28,3.28,0,0,1,8.38,7,3.86,3.86,0,0,1,10.08,6.54Z" transform="translate(-0.25 -0.24)"/></g></g></g></g></svg>