<svg xmlns="http://www.w3.org/2000/svg" viewBox="0 0 1051.95 623.56"><defs><style>.cls-1,.cls-9{fill:#020c1f;}.cls-2{fill:#30104c;opacity:0.4;}.cls-3{fill:#0f1031;}.cls-4{fill:#40288c;}.cls-5{fill:#754c24;}.cls-6{fill:#8c6239;}.cls-7{fill:#a67c52;}.cls-8{fill:#c69c6d;}.cls-9{opacity:0.5;}</style></defs><title>Asset 74</title><g id="Layer_2" data-name="Layer 2"><g id="HUD_copy" data-name="HUD copy"><rect id="_Rectangle_" data-name="&lt;Rectangle&gt;" x="0.12" y="50.83" width="1051.83" height="477.25"/><rect id="_Rectangle_2" data-name="&lt;Rectangle&gt;" class="cls-1" x="0.12" y="41.68" width="1042.58" height="475.09"/><rect id="_Rectangle_3" data-name="&lt;Rectangle&gt;" class="cls-2" x="15.98" y="50.83" width="1013.36" height="406.57"/><rect id="_Rectangle_4" data-name="&lt;Rectangle&gt;" x="10.66" y="540.49" width="1041.04" height="83.08"/><rect id="_Rectangle_5" data-name="&lt;Rectangle&gt;" class="cls-3" x="1.66" y="532.49" width="1041.04" height="83.08"/><rect id="_Rectangle_6" data-name="&lt;Rectangle&gt;" class="cls-3" y="474.97" width="1042.82" height="36.38"/><path class="cls-4" d="M526,472.94,10.21,488.43a6.09,6.09,0,0,1-6.09-6.1L1.66,58.8a6.1,6.1,0,0,1,6.1-6.09H380.29A145.66,145.66,0,0,1,526,198.37Z"/><path class="cls-4" d="M432.85,454.47H526a0,0,0,0,1,0,0V493.7a0,0,0,0,1,0,0H444.35a11.5,11.5,0,0,1-11.5-11.5V454.47A0,0,0,0,1,432.85,454.47Z"/><path class="cls-5" d="M526,454.47H437.75v1.22a28.2,28.2,0,0,0,28.2,28.2H526Z"/><path class="cls-6" d="M526,483.89c-3.37.21-4.85,0-35.55,0-6.88,0-22.34-6.67-25-9.8-5.44-6.7-13.63-14.59-25.34-19.21-15.85-6.26-54.54-3.91-58.39-3.27-26.85,4.41-147.54,9-362.11,24.93-2-136.92-4.09-276.29-6.13-413.21A966.09,966.09,0,0,1,423.09,45.57c27.56,6.56,74.09,22.31,93.87,62.57A93,93,0,0,1,526,143.65C531.9,227.13,526.56,461.59,526,483.89Z"/><path class="cls-7" d="M519.6,422c1.68,3.37-.28,7.9-.44,14.25-.37,13.89-.45,20.69,0,41.68.21,9.94-19.39,2.51-29.39-3.82h0c-.35-.37-31.27-33.37-52.72-34.1-28.21-1-173.53,11-409.52,24.3-2-136.92-4.09-278.74-6.13-415.66A966.31,966.31,0,0,1,431,30.85c27.57,6.57,56.92,22.31,76.71,62.57,7.36,15,8.41,28.56,9.07,35.51C520.08,164.05,521.55,273.83,519.6,422Z"/><path class="cls-8" d="M52.71,442.75a6.61,6.61,0,0,0,6.89,6.55c94.52-3.56,216.7-1.18,341.37-15.68,13.41-1.56,46.83-4.91,72.34,7.36,3.12,1.5,16.26,8.11,31.88,16.55,8.75,4.73,15.92,8.76,20.76,11.51q0-172,.08-344a105.46,105.46,0,0,0-73.56-89.86c-23.22-7.87-48.16-10.08-74.8-15.94C250.64-8.73,137.51,3.56,55.37,22a4.84,4.84,0,0,0-3.56,1.24,4.72,4.72,0,0,0-1.28,2,5.32,5.32,0,0,0-.23,1.47C50.29,28.75,52.19,350.26,52.71,442.75Z"/><path class="cls-4" d="M519.38,472.94l515.74,15.49a6.1,6.1,0,0,0,6.09-6.1l2.46-423.53a6.1,6.1,0,0,0-6.1-6.09H665A145.66,145.66,0,0,0,519.38,198.37Z"/><path class="cls-4" d="M530.79,454.47h81.69a0,0,0,0,1,0,0V493.7a0,0,0,0,1,0,0H519.29a0,0,0,0,1,0,0V466a11.5,11.5,0,0,1,11.5-11.5Z" transform="translate(1131.77 948.17) rotate(-180)"/><path class="cls-5" d="M519.29,454.47h88.28v1.22a28.19,28.19,0,0,1-28.2,28.2H519.29Z"/><path class="cls-6" d="M519.29,483.89c3.38.21,4.85,0,35.56,0,6.88,0,22.34-6.67,25-9.8,5.44-6.7,13.64-14.59,25.34-19.21,15.86-6.26,54.55-3.91,58.4-3.27,26.85,4.41,147.54,9,362.11,24.93,2-136.92,4.09-276.29,6.13-413.21A966.09,966.09,0,0,0,622.24,45.57c-27.57,6.56-74.09,22.31-93.87,62.57a93.22,93.22,0,0,0-9.08,35.51C513.43,227.13,518.77,461.59,519.29,483.89Z"/><path class="cls-7" d="M525.72,422c-2.73,26.93-4.64,37.66-6,42a28.05,28.05,0,0,0-1.23,10.73c.25,2.87.37,4.3,1.14,5.38,5.88,8.24,35.89-6,35.9-6s0,0,0,0c.35-.37,31.28-33.37,52.72-34.1,28.22-1,173.54,11,409.53,24.3,2-136.92,4.09-278.74,6.13-415.66A966.31,966.31,0,0,0,614.37,30.85c-27.57,6.57-56.93,22.31-76.71,62.57-7.37,15-8.41,28.56-9.07,35.51C525.24,164.05,523.78,273.83,525.72,422Z"/><path class="cls-8" d="M992.48,440a6.61,6.61,0,0,1-6.89,6.55c-94.52-3.56-216.7-1.18-341.37-15.68-13.41-1.56-46.83-4.91-72.34,7.36l-3.4,1.63c-7,3.37-14.28,7.12-28.48,14.92-5.61,3.08-12.75,7.05-21,11.78q.15-5.81.29-11.61,4.13-168-.08-332.71a105.46,105.46,0,0,1,73.56-89.86c23.22-7.87,48.16-10.08,74.8-15.94,127-27.92,240.16-15.63,322.3,2.85a4.84,4.84,0,0,1,3.56,1.24,4.72,4.72,0,0,1,1.28,2,5.32,5.32,0,0,1,.23,1.47C994.9,26,993,347.49,992.48,440Z"/><rect class="cls-7" x="511.78" y="476.54" width="15.58" height="6.1"/><rect class="cls-1" x="101.01" y="113.53" width="854" height="314.65"/><rect class="cls-8" x="97.01" y="113.53" width="854" height="309.65"/><rect class="cls-9" x="97.01" y="108.14" width="854" height="315.05"/></g></g></svg>