<svg xmlns="http://www.w3.org/2000/svg" viewBox="0 0 41.77 59.5"><defs><style>.cls-1{fill:#fda300;}.cls-2{fill:#f36e74;}.cls-3{fill:#614bbf;}.cls-4{fill:#f89a78;}</style></defs><title>Asset 53</title><g id="Layer_2" data-name="Layer 2"><g id="Sneak_Diary" data-name="Sneak Diary"><g id="Layer_14" data-name="Layer 14"><path class="cls-1" d="M42,21.07A20.77,20.77,0,0,1,36,35.62v.14A21,21,0,0,1,30.06,40v-.15a20.54,20.54,0,0,1-17.85,0V40a20.93,20.93,0,0,1-6-4.23v-.16A20.8,20.8,0,0,1,14.94,1.19,20.49,20.49,0,0,1,21.13.25,20.78,20.78,0,0,1,42,21.07Z" transform="translate(-0.25 -0.25)"/><path class="cls-2" d="M36,35.62A20.82,20.82,0,0,0,28.3,1.51,20.87,20.87,0,0,1,36,35.76Z" transform="translate(-0.25 -0.25)"/><path class="cls-3" d="M36,35.76v21a3,3,0,0,1-1.42,2.53,2.91,2.91,0,0,1-1.56.45,3,3,0,0,1-1.33-.32L21.13,54.15,10.57,59.43a3,3,0,0,1-4.31-2.66v-21a20.93,20.93,0,0,0,6,4.23V52l7.59-3.79a2.92,2.92,0,0,1,2.67,0L30.06,52V40A21,21,0,0,0,36,35.76Z" transform="translate(-0.25 -0.25)"/><path class="cls-3" d="M30.06,40V52l-7.59-3.79a2.92,2.92,0,0,0-2.67,0L12.21,52V40a20.91,20.91,0,0,0,17.85,0Z" transform="translate(-0.25 -0.25)"/><path class="cls-4" d="M30.06,39.86V40a20.91,20.91,0,0,1-17.85,0v-.15a20.54,20.54,0,0,0,17.85,0Z" transform="translate(-0.25 -0.25)"/><path class="cls-2" d="M14.94,1.19A20.8,20.8,0,0,0,6.26,35.62v.16A20.87,20.87,0,0,1,14.94,1.19Z" transform="translate(-0.25 -0.25)"/></g></g></g></svg>