<svg xmlns="http://www.w3.org/2000/svg" viewBox="0 0 24.54 24.54"><defs><style>.cls-1{fill:#7f6bf2;}</style></defs><title>Asset 56</title><g id="Layer_2" data-name="Layer 2"><g id="Chat"><path class="cls-1" d="M3.68,12.27H2.45v9.82a2.46,2.46,0,0,0,2.46,2.45H11V12.27H3.68Zm16,0H13.5V24.54h6.13a2.46,2.46,0,0,0,2.46-2.45V12.27H19.63Zm1-6.13a6.1,6.1,0,0,0,.26-1.85A4.3,4.3,0,0,0,16.57,0c-2,0-3.32,1.82-4.18,3.79C11.54,1.93,10.15,0,8,0a4.3,4.3,0,0,0-4.3,4.29,6.1,6.1,0,0,0,.26,1.85H0V11H11V8.59H13.5V11h11V6.14ZM6.14,4.29A1.84,1.84,0,0,1,8,2.45c1.09,0,2.1,1.88,2.69,3.69H7.36C6.9,6.14,6.14,6.14,6.14,4.29ZM16.57,2.45a1.85,1.85,0,0,1,1.84,1.84c0,1.85-.77,1.85-1.23,1.85h-3C14.77,4.2,15.67,2.45,16.57,2.45Z"/></g></g></svg>