<svg xmlns="http://www.w3.org/2000/svg" viewBox="0 0 20.86 22.52"><defs><style>.cls-1{fill:#933131;}</style></defs><title>Asset 55</title><g id="Layer_2" data-name="Layer 2"><g id="Chat"><path class="cls-1" d="M18.18,6.4a14,14,0,0,1,2.93,8.47c0,6.37-4,7.9-6.13,7.9-2.47,0-7.56-1.91-8.59-9.18,0,0-3.73,4.22,1.22,9.18-4.9,0-7.36-4.45-7.36-7.95,0-2.77,1.36-5.55,4-8.23a7.3,7.3,0,0,0,2.4-5.37A1,1,0,0,1,8.15.38c1.91,1.1,4.75,3.1,5.6,5.68a8.44,8.44,0,0,1-.41,6.11c2.89-1,3.5-3.46,3.53-5.31A.73.73,0,0,1,18.18,6.4Z" transform="translate(-0.25 -0.25)"/></g></g></svg>