<svg xmlns="http://www.w3.org/2000/svg" viewBox="0 0 49.12 62.14"><defs><style>.cls-1{fill:#e94976;}</style></defs><title>Asset 62</title><g id="Layer_2" data-name="Layer 2"><g id="Chat"><g id="Layer_12" data-name="Layer 12"><g id="ic-heart"><path class="cls-1" d="M17.42,1.1c7.32-3,13.36,2.48,13.84,9.86.21,3.27-.91,6.87-2.9,10.74a46.49,46.49,0,0,1-2.93,4.89c-.64.93-1.16,1.62-1.48,2L22.85,30l-1.74-.22c-.52-.06-1.37-.18-2.48-.39A48.1,48.1,0,0,1,13.1,28C9,26.68,5.62,24.9,3.46,22.46-1.4,16.91-1,8.71,6.31,5.69a7.71,7.71,0,0,1,6.48-.07A7.68,7.68,0,0,1,17.42,1.1ZM28.11,11.16C27.81,6.49,24.2,1.7,18.63,4s-1.7,7.51-3.15,8.11-2.41-5.81-8-3.52S2.75,16.86,5.84,20.37c4.33,4.95,15.65,6.3,15.65,6.3S28.54,17.72,28.11,11.16Z" transform="translate(-0.25 -0.25)"/><path class="cls-1" d="M18.63,4c5.57-2.31,9.18,2.48,9.48,7.15.43,6.56-6.62,15.51-6.62,15.51s-11.32-1.35-15.65-6.3C2.75,16.86,2,10.9,7.51,8.6s6.51,4.13,8,3.52S13.07,6.31,18.63,4Zm-8.3,8.11a1.18,1.18,0,0,0-1.54-.64,3.89,3.89,0,0,0-1.42,1,3.27,3.27,0,0,0-.5,3.58,1.18,1.18,0,0,0,2.18-.9.94.94,0,0,1,.1-1.13,1.58,1.58,0,0,1,.54-.42A1.18,1.18,0,0,0,10.33,12.12Z" transform="translate(-0.25 -0.25)"/><path class="cls-1" d="M8.79,11.48a1.18,1.18,0,0,1,.9,2.18,1.58,1.58,0,0,0-.54.42.94.94,0,0,0-.1,1.13,1.18,1.18,0,0,1-2.18.9,3.27,3.27,0,0,1,.5-3.58A3.89,3.89,0,0,1,8.79,11.48Z" transform="translate(-0.25 -0.25)"/></g><g id="ic-heart-2" data-name="ic-heart"><path class="cls-1" d="M38.05,31.11c8.45-.68,12.8,6.92,10.86,14.61-.86,3.39-3.17,6.71-6.49,10a54.14,54.14,0,0,1-4.6,4c-1,.73-1.71,1.27-2.16,1.57l-1.58,1.06-1.72-.79C31.85,61.37,31,61,30,60.39a52.37,52.37,0,0,1-5.21-3.26c-3.79-2.71-6.6-5.61-8-8.82-3.14-7.27,0-15.49,8.42-16.17a8.17,8.17,0,0,1,6.61,2.06A8.28,8.28,0,0,1,38.05,31.11Zm7.59,13.78C46.86,40,44.76,34,38.32,34.47s-4.22,7.11-5.9,7.25-.54-6.73-7-6.22S17.88,42.36,19.87,47c2.81,6.46,13.9,11.58,13.9,11.58S43.91,51.73,45.64,44.89Z" transform="translate(-0.25 -0.25)"/><path class="cls-1" d="M38.32,34.47C44.76,34,46.86,40,45.64,44.89c-1.73,6.84-11.87,13.65-11.87,13.65S22.68,53.42,19.87,47c-2-4.6-.83-10.94,5.6-11.46s5.27,6.35,7,6.22S31.88,35,38.32,34.47ZM27.17,40a1.27,1.27,0,0,0-1.36-1.16,4.13,4.13,0,0,0-1.78.59,3.52,3.52,0,0,0-1.7,3.5,1.27,1.27,0,0,0,1.36,1.16,1.25,1.25,0,0,0,1.16-1.36c-.05-.61.11-.91.48-1.12a1.73,1.73,0,0,1,.68-.24A1.27,1.27,0,0,0,27.17,40Z" transform="translate(-0.25 -0.25)"/><path class="cls-1" d="M25.81,38.86a1.27,1.27,0,0,1,.2,2.53,1.73,1.73,0,0,0-.68.24c-.37.21-.53.51-.48,1.12a1.25,1.25,0,0,1-1.16,1.36A1.27,1.27,0,0,1,22.33,43a3.52,3.52,0,0,1,1.7-3.5A4.13,4.13,0,0,1,25.81,38.86Z" transform="translate(-0.25 -0.25)"/></g></g></g></g></svg>