<svg xmlns="http://www.w3.org/2000/svg" viewBox="0 0 775.02 123.12"><defs><style>.cls-1{fill:#34146a;}.cls-2,.cls-3{fill:#000a59;}.cls-2{opacity:0.6;}.cls-4{fill:#0f1031;}.cls-5{fill:#40288c;}.cls-6{fill:none;stroke:#40288c;stroke-miterlimit:10;}</style></defs><title>Asset 54</title><g id="Layer_2" data-name="Layer 2"><g id="Sneak_Diary" data-name="Sneak Diary"><g id="Layer_14" data-name="Layer 14"><rect class="cls-1" x="707.53" y="24.26" width="67.49" height="67.49"/><rect class="cls-2" x="131.18" y="0.5" width="556.9" height="122.12"/><rect class="cls-3" width="123.12" height="123.12"/><rect class="cls-4" x="2.54" y="3.1" width="117.84" height="117.84"/><path class="cls-5" d="M138,81.55a1,1,0,0,0,1,1H679.1a1,1,0,0,0,0-2H139a1,1,0,0,0-1,1Z"/><path class="cls-6" d="M138,81.55a1,1,0,0,0,1,1H679.1a1,1,0,0,0,0-2H139a1,1,0,0,0-1,1Z"/><path class="cls-3" d="M762.36,49a21,21,0,0,1-6,14.73v.13a21,21,0,0,1-6,4.31V68a20.73,20.73,0,0,1-18.06,0v.15a21.32,21.32,0,0,1-6-4.28V63.7A21.08,21.08,0,1,1,762.36,49Z"/><path class="cls-3" d="M756.34,63.7a21.07,21.07,0,0,0-7.81-34.53,21.12,21.12,0,0,1,7.81,34.66Z"/><path class="cls-3" d="M756.34,63.83V85.1a3,3,0,0,1-3,3A2.92,2.92,0,0,1,752,87.8l-10.7-5.35-10.7,5.35a3,3,0,0,1-4.36-2.7V63.86a21.32,21.32,0,0,0,6,4.28V80.23l7.68-3.84a3.05,3.05,0,0,1,2.7,0l7.68,3.84V68.14A21,21,0,0,0,756.34,63.83Z"/><path class="cls-3" d="M750.31,68.14V80.23l-7.68-3.84a3.05,3.05,0,0,0-2.7,0l-7.68,3.84V68.14a21.1,21.1,0,0,0,18.06,0Z"/><path class="cls-3" d="M750.31,68v.15a21.1,21.1,0,0,1-18.06,0V68a20.73,20.73,0,0,0,18.06,0Z"/><path class="cls-3" d="M735,28.84a21.07,21.07,0,0,0-8.79,34.86v.16a21.12,21.12,0,0,1,8.79-35Z"/></g></g></g></svg>