<svg xmlns="http://www.w3.org/2000/svg" viewBox="0 0 20.86 19.82"><defs><style>.cls-1{fill:#7f6bf2;}</style></defs><title>Asset 28</title><g id="Layer_2" data-name="Layer 2"><g id="Chat"><path class="cls-1" d="M10.43,0C3.66,0,0,4.84,0,9.39a7.08,7.08,0,0,0,3.13,5.74v4.69H6.26V16.69H8.34v3.13h4.18V16.69H14.6v3.13h3.13V15.13a7.08,7.08,0,0,0,3.13-5.74C20.86,4.84,17.2,0,10.43,0ZM6.26,11.47a2.36,2.36,0,0,1-2.09-2.6A2.37,2.37,0,0,1,6.26,6.26,2.36,2.36,0,0,1,8.34,8.87,2.35,2.35,0,0,1,6.26,11.47Zm8.34,0a2.35,2.35,0,0,1-2.08-2.6A2.36,2.36,0,0,1,14.6,6.26a2.37,2.37,0,0,1,2.09,2.61A2.36,2.36,0,0,1,14.6,11.47Z"/></g></g></svg>