<svg xmlns="http://www.w3.org/2000/svg" xmlns:xlink="http://www.w3.org/1999/xlink" viewBox="0 0 199.6 283.42"><defs><style>.cls-1{fill:#020c1f;}.cls-2{fill:url(#New_Gradient_Swatch_1);}.cls-3{font-size:14.72px;fill:#f7f7f7;font-family:Asap-Bold, Asap;opacity:0.65;}.cls-4{font-weight:700;}.cls-5,.cls-6{font-family:Asap-Regular, Asap;}.cls-6{fill:gray;}.cls-7{fill:#000a59;}.cls-8{fill:#614bbf;}</style><radialGradient id="New_Gradient_Swatch_1" cx="11.04" cy="124.59" r="103.4" gradientTransform="matrix(0.71, 0.68, -2.12, 2.04, 267.54, -121.62)" gradientUnits="userSpaceOnUse"><stop offset="0.01" stop-color="#015249"/><stop offset="0.27" stop-color="#03b3a1" stop-opacity="0.3"/><stop offset="0.38" stop-color="#198594" stop-opacity="0.48"/><stop offset="0.61" stop-color="#510e71" stop-opacity="0.95"/><stop offset="0.63" stop-color="#58006d"/><stop offset="0.64" stop-color="#55006e"/><stop offset="0.66" stop-color="#4a0070"/><stop offset="0.7" stop-color="#430072"/><stop offset="0.8" stop-color="#410072"/><stop offset="0.92" stop-color="#1c0664"/><stop offset="1" stop-color="#000a59"/></radialGradient></defs><title>Asset 64</title><g id="Layer_2" data-name="Layer 2"><g id="Start_Menu" data-name="Start Menu"><rect id="_Rectangle_" data-name="&lt;Rectangle&gt;" x="3.83" y="5.24" width="195.76" height="278.18"/><rect id="_Rectangle_2" data-name="&lt;Rectangle&gt;" class="cls-1" x="22.08" width="174.37" height="280.84"/><rect id="_Rectangle_3" data-name="&lt;Rectangle&gt;" class="cls-2" width="22.08" height="280.84"/><text class="cls-3" transform="translate(15.75 275.47) rotate(-89.96)"><tspan class="cls-4">pickysoft</tspan><tspan class="cls-5" x="58.51" y="0"> </tspan><tspan class="cls-6" x="62.05" y="0">OS</tspan></text><rect id="_Rectangle_4" data-name="&lt;Rectangle&gt;" class="cls-7" x="22.04" y="71.75" width="174.45" height="67.89"/><rect id="_Rectangle_5" data-name="&lt;Rectangle&gt;" class="cls-7" x="22.04" y="141.74" width="174.45" height="67.89"/><rect id="_Rectangle_6" data-name="&lt;Rectangle&gt;" class="cls-7" x="22" y="211.3" width="174.45" height="67.89"/><rect id="_Rectangle_7" data-name="&lt;Rectangle&gt;" class="cls-7" x="22.04" y="2.18" width="174.45" height="67.89"/><g id="Page-1"><g id="ic-message"><path id="Oval-1" class="cls-8" d="M50.36,114.58c8.41,0,15.24-5.3,15.24-11.85S58.77,90.87,50.36,90.87s-15.25,5.31-15.25,11.86,6.83,11.85,15.25,11.85Zm0,3.39h0c-10.13,0-18.63-6.61-18.63-15.24s8.5-15.24,18.63-15.24S69,94.1,69,102.73,60.48,118,50.36,118ZM40.19,97.65a1.71,1.71,0,0,1,1.7-1.7H58.82a1.7,1.7,0,0,1,1.7,1.7h0a1.71,1.71,0,0,1-1.7,1.69H41.89a1.69,1.69,0,0,1-1.7-1.69Zm0,5.08A1.69,1.69,0,0,1,41.88,101H52.05a1.68,1.68,0,0,1,1.69,1.69h0a1.69,1.69,0,0,1-1.69,1.69H41.88a1.69,1.69,0,0,1-1.69-1.69Zm0,5.08a1.69,1.69,0,0,1,1.7-1.69H47a1.69,1.69,0,0,1,0,3.38H41.89A1.69,1.69,0,0,1,40.19,107.81Zm-3.38,3.39,6.77,5.08L36.81,118Z"/></g></g><g id="Page-1-2" data-name="Page-1"><g id="ic-file"><path id="Rectangle-156" class="cls-8" d="M40.66,51.2a1.94,1.94,0,0,0,1.93,1.95H58.12a2,2,0,0,0,1.93-1.94V29.82a5.4,5.4,0,0,0-1.35-3.31l-3-3a5.4,5.4,0,0,0-3.32-1.37H42.61a1.93,1.93,0,0,0-2,1.94ZM36.78,24.05a5.81,5.81,0,0,1,5.83-5.82h9.75a9.19,9.19,0,0,1,6.07,2.51l3,3a9.23,9.23,0,0,1,2.48,6V51.21A5.82,5.82,0,0,1,58.12,57H42.59a5.81,5.81,0,0,1-5.81-5.83Zm5.82,7.76a1.94,1.94,0,0,1,1.93-1.94H56.18a1.93,1.93,0,0,1,1.93,1.94h0a1.94,1.94,0,0,1-1.93,1.94H44.53a1.93,1.93,0,0,1-1.93-1.94Zm0,5.82a1.94,1.94,0,0,1,1.92-1.94h7.79a1.92,1.92,0,0,1,1.92,1.94h0a1.94,1.94,0,0,1-1.92,1.94H44.52a1.92,1.92,0,0,1-1.92-1.94Zm0,5.82a1.94,1.94,0,0,1,1.95-1.94H48.4a2,2,0,0,1,2,1.94h0a1.94,1.94,0,0,1-2,1.94H44.55a1.94,1.94,0,0,1-1.95-1.94Z"/></g></g><g id="Page-1-3" data-name="Page-1"><g id="ic-switch-on"><path id="Rectangle-75" class="cls-8" d="M36.82,247.88a6,6,0,0,0,6,6H57.88a6,6,0,0,0,0-12H42.83A6,6,0,0,0,36.82,247.88Zm-3,0a9,9,0,0,1,9-9H57.88a9,9,0,0,1,0,18H42.83A9,9,0,0,1,33.81,247.88Zm24.07,4.51a4.52,4.52,0,1,1,4.51-4.51A4.51,4.51,0,0,1,57.88,252.39Z"/></g></g><g id="Page-1-4" data-name="Page-1"><g id="ic-switch-off"><path id="Rectangle-75-2" data-name="Rectangle-75" class="cls-8" d="M36.82,247.88a6,6,0,0,0,6,6H57.88a6,6,0,0,0,0-12H42.83A6,6,0,0,0,36.82,247.88Zm-3,0a9,9,0,0,1,9-9H57.88a9,9,0,0,1,0,18H42.83A9,9,0,0,1,33.81,247.88Zm9,1.5a1.51,1.51,0,1,0-1.5-1.5A1.51,1.51,0,0,0,42.83,249.38Zm0,3a4.52,4.52,0,1,1,4.52-4.51A4.51,4.51,0,0,1,42.83,252.39Z"/></g></g><g id="Page-1-5" data-name="Page-1"><g id="ic-settings"><path id="Combined-Shape" class="cls-8" d="M33.12,164.92a1.5,1.5,0,0,1,1.51-1.51h1.52a1.51,1.51,0,0,1,0,3H34.63A1.51,1.51,0,0,1,33.12,164.92Zm16.62,0a1.5,1.5,0,0,1,1.5-1.51h13.6a1.51,1.51,0,0,1,0,3H51.24A1.5,1.5,0,0,1,49.74,164.92Zm-6,1.51a1.51,1.51,0,1,1,1.51-1.51A1.51,1.51,0,0,1,43.7,166.43Zm0,3a4.53,4.53,0,1,1,4.53-4.53A4.53,4.53,0,0,1,43.7,169.45ZM33.12,186.06a1.5,1.5,0,0,1,1.51-1.51h1.52a1.51,1.51,0,1,1,0,3H34.63A1.51,1.51,0,0,1,33.12,186.06Zm16.62,0a1.5,1.5,0,0,1,1.5-1.51h13.6a1.51,1.51,0,0,1,0,3H51.24A1.5,1.5,0,0,1,49.74,186.06Zm-6,1.51a1.51,1.51,0,1,1,1.51-1.51A1.51,1.51,0,0,1,43.7,187.57Zm0,3a4.53,4.53,0,1,1,4.53-4.53A4.53,4.53,0,0,1,43.7,190.59Zm-10.58-15.1A1.52,1.52,0,0,1,34.63,174H46.72a1.51,1.51,0,0,1,0,3H34.63A1.51,1.51,0,0,1,33.12,175.49Zm27.19,0A1.5,1.5,0,0,1,61.83,174h3a1.51,1.51,0,1,1,0,3h-3A1.51,1.51,0,0,1,60.31,175.49Zm-6,1.51a1.51,1.51,0,1,1,1.51-1.51A1.51,1.51,0,0,1,54.27,177Zm0,3a4.53,4.53,0,1,1,4.53-4.53A4.53,4.53,0,0,1,54.27,180Z"/></g></g></g></g></svg>