<svg xmlns="http://www.w3.org/2000/svg" viewBox="0 0 22.09 18.4"><defs><style>.cls-1{fill:#ff931e;}</style></defs><title>Asset 61</title><g id="Layer_2" data-name="Layer 2"><g id="Chat"><path class="cls-1" d="M22.34,1.47V16.2a2.45,2.45,0,0,1-2.45,2.45H2.71A2.45,2.45,0,0,1,.25,16.2V1.47A1.24,1.24,0,0,1,1.08.32,1.25,1.25,0,0,1,2.44.71l4,4.93,4-4.93a1.27,1.27,0,0,1,1.91,0l4,4.93L20.16.71a1.22,1.22,0,0,1,2.18.76ZM19.89,16.2V13.74H2.71V16.2Zm0-4.91V5l-2.73,3.4a1.27,1.27,0,0,1-1.91,0L11.3,3.45l-4,4.93a1.28,1.28,0,0,1-1.92,0L2.71,5v6.31Z" transform="translate(-0.25 -0.25)"/><rect class="cls-1" x="2.45" y="13.49" width="17.18" height="2.45"/><path class="cls-1" d="M19.89,5v6.31H2.71V5l2.72,3.4a1.28,1.28,0,0,0,1.92,0l4-4.93,3.95,4.93a1.27,1.27,0,0,0,1.91,0Z" transform="translate(-0.25 -0.25)"/></g></g></svg>