<svg xmlns="http://www.w3.org/2000/svg" viewBox="0 0 33.09 18.05"><defs><style>.cls-1{fill:#614bbf;}</style></defs><title>Page-1 (2)</title><g id="Layer_2" data-name="Layer 2"><g id="Start_Menu" data-name="Start Menu"><g id="Page-1"><g id="ic-switch-off"><path id="Rectangle-75" class="cls-1" d="M3,9a6,6,0,0,0,6,6H24.08a6,6,0,0,0,0-12H9A6,6,0,0,0,3,9ZM0,9A9,9,0,0,1,9,0H24.08a9,9,0,0,1,0,18.05H9A9,9,0,0,1,0,9Zm9,1.5A1.51,1.51,0,1,0,7.52,9,1.5,1.5,0,0,0,9,10.53Zm0,3A4.52,4.52,0,1,1,13.54,9,4.51,4.51,0,0,1,9,13.54Z"/></g></g></g></g></svg>