<svg xmlns="http://www.w3.org/2000/svg" viewBox="0 0 27.16 38.8"><defs><style>.cls-1{fill:#614bbf;}</style></defs><title>Page-1 (3)</title><g id="Layer_2" data-name="Layer 2"><g id="Start_Menu" data-name="Start Menu"><g id="Page-1"><g id="ic-file"><path id="Rectangle-156" class="cls-1" d="M3.88,33a1.93,1.93,0,0,0,1.93,1.94H21.35A2,2,0,0,0,23.28,33V11.59a5.41,5.41,0,0,0-1.36-3.31l-3-3a5.35,5.35,0,0,0-3.31-1.37H5.84a1.93,1.93,0,0,0-2,1.94ZM0,5.82A5.82,5.82,0,0,1,5.84,0h9.75a9.22,9.22,0,0,1,6.06,2.51l3,3a9.19,9.19,0,0,1,2.49,6V33a5.83,5.83,0,0,1-5.81,5.82H5.81A5.82,5.82,0,0,1,0,33Zm5.82,7.76a2,2,0,0,1,1.93-1.94H19.4a1.94,1.94,0,0,1,1.94,1.94h0a2,2,0,0,1-1.94,1.94H7.75a1.93,1.93,0,0,1-1.93-1.94Zm0,5.82a1.94,1.94,0,0,1,1.92-1.94h7.8a1.92,1.92,0,0,1,1.92,1.94h0a1.94,1.94,0,0,1-1.92,1.94H7.74A1.92,1.92,0,0,1,5.82,19.4Zm0,5.82a1.94,1.94,0,0,1,2-1.94h3.84a2,2,0,0,1,2,1.94h0a1.94,1.94,0,0,1-2,1.94H7.78a2,2,0,0,1-2-1.94Z"/></g></g></g></g></svg>