<svg xmlns="http://www.w3.org/2000/svg" viewBox="0 0 37.26 30.48"><defs><style>.cls-1{fill:#614bbf;}</style></defs><title>Page-1 (4)</title><g id="Layer_2" data-name="Layer 2"><g id="Start_Menu" data-name="Start Menu"><g id="Page-1"><g id="ic-message"><path id="Oval-1" class="cls-1" d="M18.63,27.1c8.42,0,15.24-5.31,15.24-11.86S27.05,3.39,18.63,3.39,3.39,8.69,3.39,15.24,10.21,27.1,18.63,27.1Zm0,3.38h0C8.51,30.48,0,23.87,0,15.24S8.51,0,18.63,0,37.26,6.61,37.26,15.24,28.75,30.48,18.63,30.48ZM8.47,10.16a1.7,1.7,0,0,1,1.7-1.69H27.09a1.69,1.69,0,0,1,1.7,1.69h0a1.7,1.7,0,0,1-1.7,1.69H10.17a1.69,1.69,0,0,1-1.7-1.69Zm0,5.08a1.7,1.7,0,0,1,1.69-1.69H20.33A1.69,1.69,0,0,1,22,15.24h0a1.7,1.7,0,0,1-1.69,1.7H10.16a1.69,1.69,0,0,1-1.69-1.7Zm0,5.08a1.69,1.69,0,0,1,1.69-1.69h5.08a1.7,1.7,0,1,1,0,3.39H10.16A1.7,1.7,0,0,1,8.47,20.32ZM5.08,23.71l6.77,5.08L5.08,30.48Z"/></g></g></g></g></svg>